<?xml version="1.0" encoding="utf-8"?>
<!-- Generator: Adobe Illustrator 24.3.0, SVG Export Plug-In . SVG Version: 6.00 Build 0)  -->
<svg version="1.1" id="Слой_1" xmlns="http://www.w3.org/2000/svg" xmlns:xlink="http://www.w3.org/1999/xlink" x="0px" y="0px"
	 viewBox="0 0 113.39 114.09" style="enable-background:new 0 0 113.39 114.09;" xml:space="preserve">
<style type="text/css">
	.st0{fill:#FEFEFE00;}
	.st1{fill:#92A6AF;}
</style>
<g>
	<path class="st0" d="M0.07,114.03C0.07,76.98,0.1,39.93,0,2.88C-0.01,0.47,0.47-0.01,2.88,0C38.76,0.1,74.63,0.1,110.5,0
		c2.41-0.01,2.89,0.47,2.88,2.88c-0.1,36.11-0.1,72.22,0,108.33c0.01,2.41-0.47,2.89-2.88,2.88C73.69,114,36.88,114.03,0.07,114.03z
		 M78.72,15.85c3.22,3.22,6.39,6.48,9.02,10.24c0.67,0.95,1.15,1.63-0.04,2.62c-4.57,3.84-9.09,7.74-13.58,11.68
		c-1.05,0.92-1.59,0.85-2.48-0.27c-1.73-2.19-3.47-4.48-5.59-6.26c-12.73-10.69-28.82-11.24-42.42-1.61
		c-12.23,8.66-16.44,24.88-9.9,38.1c6.91,13.97,22.14,21.45,37.5,18.18c8.96-1.91,15.69-6.73,19.09-16.04
		c-8.24,0-16.08-0.05-23.92,0.03c-2.06,0.02-2.94-0.55-2.89-2.77c0.13-5.04,0.09-10.08,0.02-15.12c-0.02-1.75,0.51-2.52,2.39-2.52
		c15.94,0.05,31.88,0.04,47.82,0.01c1.74,0,2.48,0.58,2.6,2.41c1.38,21.7-6.38,38.64-25.7,49.6c-0.42,0.24-0.81,0.47-0.32,1.26
		c3.81-0.94,7.29-2.88,10.74-4.71c11.24-5.97,20.5-14.15,25.71-25.96c7.13-16.15,4.7-31.43-5.98-45.22
		c-6.47-8.34-14.78-14.59-24.78-18.37c-3.59-2.14-7.41-3.54-11.63-3.75C69.68,9.41,74.07,12.86,78.72,15.85z"/>
	<path class="st1" d="M100.8,29.49c-6.47-8.34-14.92-14.36-24.55-18.99c-3.77-1.81-7.64-2.92-11.86-3.13
		c5.88,1.58,19.5,12.28,23.34,18.72c0.6,1,1.15,1.63-0.04,2.62c-4.57,3.84-9.09,7.74-13.58,11.68c-1.05,0.92-1.59,0.85-2.48-0.27
		c-1.73-2.19-3.47-4.48-5.59-6.26c-12.73-10.69-28.82-11.24-42.42-1.61c-12.23,8.66-16.44,24.88-9.9,38.1
		c6.91,13.97,22.14,21.45,37.5,18.18c8.96-1.91,15.69-6.73,19.09-16.04c-8.24,0-16.08-0.05-23.92,0.03
		c-2.06,0.02-2.94-0.55-2.89-2.77c0.13-5.04,0.09-10.08,0.02-15.12c-0.02-1.75,0.51-2.52,2.39-2.52
		c15.94,0.05,31.88,0.04,47.82,0.01c1.74,0,2.48,0.58,2.6,2.41c1.38,21.7-6.38,38.64-25.7,49.6c-0.42,0.24-0.81,0.47-0.32,1.26
		c3.81-0.94,7.29-2.88,10.74-4.71c11.24-5.97,20.5-14.15,25.71-25.96C113.91,58.56,111.48,43.28,100.8,29.49z"/>
</g>
</svg>
