<svg xmlns="http://www.w3.org/2000/svg" xmlns:xlink="http://www.w3.org/1999/xlink" version="1.1" id="Слой_1" x="0px" y="0px" style="enable-background:new 0 0 1080 1080;" xml:space="preserve" viewBox="257.57 174 735.68 732">
<style type="text/css">
	.st0{fill:#92A6AF;}
</style>
<g>
	<path class="st0" d="M919.69,321.75C814.53,188.43,675.15,175.6,644.16,174c43.18,12.07,151.23,89.47,179.43,138.66   c-29.99,25.94-118.23,107.17-118.23,107.17S679.87,385.6,664.3,372c-93.49-81.65-211.65-85.85-311.52-12.3   c-89.81,66.15-120.73,190.04-72.7,291.02c50.75,106.71,162.59,163.84,275.39,138.86c65.8-14.59,121.18-48.66,160.16-122.52   c-60.51,0-195.63,0.23-195.63,0.23l-0.25-155.88c0,0,356.86-0.84,369.14-1.02C929.8,712.93,764.72,862.12,701.19,906   c27.98-7.18,198.76-57.27,262.15-221.9C1015.85,560.67,997.91,420.9,919.69,321.75z"/>
</g>
</svg>